<?xml version="1.0" standalone="no"?>
<!DOCTYPE svg PUBLIC "-//W3C//DTD SVG 20010904//EN"
 "http://www.w3.org/TR/2001/REC-SVG-20010904/DTD/svg10.dtd">
<svg version="1.0" xmlns="http://www.w3.org/2000/svg"
 width="1000.000000pt" height="1000.000000pt" viewBox="0 0 1000.000000 1000.000000"
 preserveAspectRatio="xMidYMid meet">
<metadata>
Created by potrace 1.11, written by Peter Selinger 2001-2013
</metadata>
<g transform="translate(0.000000,1000.000000) scale(0.100000,-0.100000)"
fill="#000000" stroke="none">
<path d="M7419 8366 c-2 -2 -38 -7 -79 -10 -169 -15 -461 -91 -615 -159 -151
-67 -301 -155 -440 -260 -102 -78 -302 -277 -388 -388 -249 -322 -448 -762
-533 -1179 -19 -93 -30 -118 -31 -68 0 54 -20 418 -39 713 -5 81 -8 146 -19
355 -3 63 -7 138 -10 165 -2 28 -7 104 -10 170 -15 286 -27 491 -30 530 -2 17
-3 37 -4 45 -1 13 -90 15 -747 14 -410 -1 -749 -6 -754 -10 -6 -7 -89 -306
-115 -416 -2 -9 -15 -61 -30 -115 -15 -54 -28 -105 -30 -113 -2 -8 -11 -42
-20 -75 -28 -105 -77 -289 -81 -305 -2 -8 -14 -55 -28 -105 -44 -164 -108
-409 -111 -426 -2 -9 -12 -47 -24 -85 -17 -60 -77 -292 -86 -334 -2 -8 -13
-53 -24 -100 -12 -47 -24 -95 -26 -106 -3 -12 -25 -107 -49 -210 -25 -104 -47
-200 -49 -214 -3 -14 -14 -65 -25 -115 -25 -109 -69 -311 -75 -345 -3 -14 -17
-81 -31 -150 -14 -69 -27 -138 -30 -155 -3 -16 -14 -73 -25 -125 -11 -52 -22
-115 -26 -140 -4 -25 -9 -52 -10 -60 -2 -8 -4 -18 -4 -22 -1 -12 -31 -9 -31 2
0 9 -24 155 -35 210 -3 14 -9 50 -15 80 -6 30 -12 66 -15 80 -3 14 -8 39 -11
55 -3 17 -19 98 -35 180 -38 183 -33 159 -59 280 -12 55 -23 109 -25 120 -3
11 -14 62 -26 113 -11 52 -22 99 -23 105 -2 7 -6 23 -9 37 -18 73 -69 298 -73
320 -3 14 -10 43 -16 65 -5 22 -12 47 -13 55 -2 8 -11 47 -20 85 -9 39 -18 77
-20 85 -2 8 -17 71 -35 140 -17 69 -33 132 -35 140 -2 8 -10 42 -18 75 -9 33
-18 71 -21 85 -2 14 -74 304 -159 645 -85 341 -163 653 -172 693 -10 39 -23
72 -29 73 -73 3 -1509 0 -1512 -4 -3 -2 -7 -33 -9 -68 -8 -119 -16 -244 -20
-289 -2 -25 -7 -90 -10 -145 -3 -55 -8 -122 -10 -150 -2 -27 -7 -95 -10 -150
-4 -55 -8 -120 -10 -145 -6 -69 -22 -304 -30 -440 -3 -47 -8 -110 -10 -140 -3
-30 -7 -91 -10 -135 -3 -44 -7 -111 -10 -150 -3 -38 -8 -104 -10 -145 -10
-169 -16 -248 -20 -295 -2 -27 -7 -95 -11 -150 -3 -55 -7 -120 -9 -145 -13
-199 -17 -258 -20 -280 -2 -14 -6 -79 -10 -145 -4 -66 -8 -136 -10 -155 -2
-19 -6 -84 -9 -145 -4 -60 -8 -130 -11 -155 -5 -51 -15 -197 -20 -284 -2 -32
-6 -97 -10 -145 -10 -134 -14 -199 -20 -291 -7 -124 -14 -215 -21 -298 -3 -40
-7 -103 -9 -140 -3 -69 -12 -194 -20 -292 -3 -30 -7 -98 -10 -150 -3 -52 -7
-117 -10 -145 -10 -104 -19 -266 -16 -290 1 -7 193 -10 559 -10 l557 0 2 25
c1 14 4 86 7 160 4 74 8 167 11 205 4 63 13 265 20 430 4 92 16 352 20 430 4
76 14 278 20 415 2 47 6 137 9 200 3 63 8 167 11 230 3 63 8 156 10 205 2 50
7 146 10 215 3 69 8 166 10 215 5 117 15 330 20 475 2 63 7 185 11 270 8 197
11 301 14 418 3 110 21 124 34 26 4 -29 32 -188 41 -234 3 -14 9 -50 15 -80 6
-30 12 -66 15 -80 3 -14 8 -38 10 -55 3 -16 17 -88 31 -160 34 -174 33 -167
39 -195 3 -14 7 -36 10 -50 3 -14 9 -47 15 -75 29 -143 64 -301 106 -485 8
-36 17 -74 19 -85 10 -43 28 -116 61 -250 19 -77 37 -147 39 -155 1 -8 8 -35
15 -60 7 -25 13 -52 15 -60 2 -8 13 -53 25 -100 57 -225 59 -233 66 -270 3
-14 9 -39 15 -56 5 -17 11 -40 13 -50 3 -10 59 -237 126 -504 67 -267 124
-494 126 -505 2 -11 21 -85 42 -165 l37 -145 472 0 472 0 16 58 c9 32 18 66
20 75 2 9 13 49 25 87 11 39 22 79 25 90 2 11 11 45 20 75 9 30 18 62 20 71 2
10 18 68 35 130 18 63 33 121 35 129 2 8 94 344 205 745 190 688 335 1225 344
1270 2 11 7 27 10 35 3 8 7 26 10 40 2 14 11 50 20 80 8 30 17 66 20 80 2 14
12 53 21 87 9 35 18 71 20 80 2 10 29 124 60 253 31 129 67 287 81 350 29 138
33 150 44 150 4 0 8 -168 9 -372 1 -205 3 -443 6 -528 11 -407 19 -637 40
-1080 3 -63 8 -173 10 -245 3 -71 7 -179 9 -240 3 -60 8 -175 11 -255 3 -80 7
-192 10 -250 3 -58 7 -172 10 -255 3 -82 8 -197 10 -255 20 -463 21 -492 23
-500 1 -3 266 -5 588 -5 l586 0 -7 140 c-3 77 -8 160 -10 185 -1 25 -6 108 -9
185 -4 77 -9 158 -11 180 -3 22 -7 96 -10 165 -3 69 -8 152 -10 185 -13 168
-25 463 -18 440 15 -54 100 -262 144 -353 74 -153 202 -356 302 -479 24 -28
233 -239 262 -263 156 -130 325 -234 510 -313 61 -26 227 -83 268 -91 12 -3
54 -12 93 -20 39 -9 88 -18 110 -21 21 -3 53 -7 69 -10 17 -2 68 -7 115 -10
177 -12 250 -37 585 -195 375 -178 907 -404 1215 -517 52 -19 138 -51 190 -70
52 -19 102 -36 110 -38 8 -2 42 -13 74 -24 33 -12 62 -21 66 -21 4 0 22 35 40
78 18 42 38 91 45 107 7 17 34 82 59 145 26 63 51 124 56 135 5 11 34 81 64
155 30 74 72 178 94 231 l40 97 -101 27 c-55 15 -107 28 -116 31 -24 5 -198
52 -261 70 -30 9 -62 18 -70 20 -8 2 -37 10 -65 18 -166 48 -248 73 -402 123
-142 45 -173 59 -173 74 0 11 13 25 33 35 118 61 329 239 435 369 105 128 234
348 310 525 76 178 169 489 196 650 3 19 8 46 10 60 3 14 7 43 11 64 3 21 7
48 10 60 8 42 19 150 40 396 6 79 7 489 1 545 -3 22 -8 72 -11 110 -3 39 -8
86 -10 105 -2 19 -7 58 -10 85 -4 28 -13 88 -22 135 -8 47 -17 96 -20 110 -2
14 -16 70 -29 125 -14 55 -27 107 -29 115 -2 8 -18 60 -35 115 -155 474 -423
890 -735 1140 -27 22 -52 42 -55 45 -14 16 -115 82 -190 126 -233 137 -474
217 -760 255 -79 11 -492 23 -501 15z m291 -1038 c163 -45 260 -100 365 -205
151 -150 257 -353 344 -658 13 -47 58 -271 65 -330 29 -224 34 -322 31 -615
-2 -157 -5 -298 -8 -315 -3 -16 -8 -64 -12 -105 -4 -41 -8 -82 -10 -90 -1 -8
-10 -62 -20 -120 -34 -212 -97 -421 -177 -590 -118 -248 -275 -411 -470 -490
-94 -37 -167 -48 -288 -44 -352 11 -634 273 -793 735 -40 116 -64 204 -82 299
-3 14 -7 36 -10 50 -13 56 -40 281 -50 410 -7 77 -7 485 -1 550 3 25 7 78 11
119 4 41 8 81 10 90 1 9 6 41 9 72 4 31 9 67 12 80 2 13 7 40 10 59 14 82 75
303 109 395 20 55 61 146 91 203 48 92 63 117 114 186 8 12 53 60 100 107 109
109 242 185 358 204 20 3 38 8 40 10 6 6 230 -1 252 -7z"/>
</g>
</svg>
