<svg version="1" xmlns="http://www.w3.org/2000/svg" width="990.667" height="990.667" viewBox="0 0 743.000000 743.000000"><path d="M347.4 1c-69.8 4.9-129.9 29.3-178.8 72.6-4.8 4.4-9.6 8.5-10.5 9.1-1.2.9-11.2 1.5-35.2 2.1-30.1.7-33.9 1-36.4 2.6l-2.8 1.8.6 15.7c.3 8.6 1.2 29.4 1.8 46.2l1.2 30.6-3.5 8.4c-11.3 26.4-19.4 57.6-23.5 90.9-2.5 20.5-2.5 68.8.1 88.5 4.3 34.3 12.1 63.9 23.8 91.1l4.1 9.7-1.7 37.1c-2.2 50.6-3.9 105.5-3.4 114.4.6 12.3-6.8 11.2 75.4 11.2 62.3 0 70.7-.2 72.9-1.6 2.7-1.8 4.5-6.2 4.5-11.1V617l3.8 1.9c5.8 2.9 25.5 10 38.2 13.6l11.5 3.3.7 31.9c.6 33.8 2.3 51.2 5.6 58.5 2.7 6.1 8 10.4 14.4 11.7 18.2 3.8 57.1 5.5 106.3 4.8 47.7-.7 70.8-2.8 85.3-7.8 6.2-2.1 11.2-6.2 11.2-9.1 0-1.1-6.6-8.4-16.1-17.6-22.4-21.8-39.7-43.9-49.5-63.4-4-7.9-4-7.8-1.6-7.8 3.7 0 32-8.3 44.9-13.1 7.2-2.7 13.3-4.9 13.6-4.9.2 0 .7 2.1 1 4.7.4 3.5 1.2 5.3 3.2 7l2.6 2.3h73.5c54 0 74.1-.3 75.7-1.2 2.9-1.5 4.4-3.7 5.1-7.3.7-3.8-.8-66-3-123.1l-1.7-44.2 3.7-9.8c13.6-36.5 20-75.6 19.9-122.4 0-43.1-4.8-74.7-16.9-111.2l-4.6-13.8 1.1-35.6c.6-19.6 1.1-45.2 1.1-56.9V86.3l-2.5-2.3c-3.6-3.3-9.1-3.5-37-1.1-13.1 1.2-27.5 2.1-31.9 2.1h-8l-4.6-4.4c-9.2-8.9-25.9-22.1-39.5-31.2C502.8 23.6 459.4 8 411 2.6c-17-2-47.8-2.7-63.6-1.6zM398 166.4c12.7 2.3 25.4 6.2 35.9 11.2 10.1 4.7 24.2 13.7 27.7 17.6l2.2 2.3-23.4 49.5c-58.3 123-60.4 127-65.9 127-3.2 0-8.4-5.3-13.4-13.7-3.9-6.7-77.1-166.4-77.1-168.4 0-1.2 11.6-8.7 20.5-13.2 13.5-6.7 32-11.8 49.8-13.7 10.9-1.2 33.1-.4 43.7 1.4zm111 206.5c4.9 9.3-11.8 46.2-29.9 66.1l-5.1 5.5 3.1-7.5c14.3-34.7 28.6-66 30-66 .5 0 1.3.9 1.9 1.9zm-269.1 13.8c2.1 4.3 8.5 18.1 14.1 30.8 5.6 12.6 10.4 23.4 10.7 24 1.2 2.7-8.5-8.9-12.7-15-8.5-12.5-19-35.8-19-42 0-3 1-5.5 2.1-5.5.5 0 2.6 3.5 4.8 7.7z"/></svg>